<?xml version="1.0" standalone="no"?>
<!DOCTYPE svg PUBLIC "-//W3C//DTD SVG 20010904//EN"
 "http://www.w3.org/TR/2001/REC-SVG-20010904/DTD/svg10.dtd">
<svg version="1.0" xmlns="http://www.w3.org/2000/svg"
 width="512.000000pt" height="512.000000pt" viewBox="0 0 512.000000 512.000000"
 preserveAspectRatio="xMidYMid meet">
<metadata>
Created by potrace 1.11, written by Peter Selinger 2001-2013
</metadata>
<g transform="translate(0.000000,512.000000) scale(0.100000,-0.100000)"
fill="#000000" stroke="none">
<path d="M860 3910 c0 -37 2 -39 38 -45 56 -9 142 -43 194 -76 94 -61 114 -87
662 -921 l366 -557 0 -338 c-1 -440 -11 -547 -63 -624 -36 -56 -96 -78 -225
-86 l-112 -6 0 -39 0 -39 868 4 c830 4 872 5 977 25 301 57 496 188 618 412
59 109 81 198 80 325 -1 188 -63 330 -195 450 -69 62 -220 141 -336 176 l-73
21 73 32 c204 89 349 252 394 442 23 96 15 264 -17 359 -52 157 -181 294 -361
384 l-99 50 70 7 71 7 0 38 0 39 -1465 0 -1465 0 0 -40z m1195 -81 c19 -13 44
-42 56 -63 45 -80 51 -132 56 -486 3 -184 3 -333 0 -330 -14 13 -335 513 -378
589 -53 92 -65 132 -55 186 9 45 61 98 118 119 62 22 158 15 203 -15z m1000
-46 c23 -31 38 -100 31 -146 -11 -70 -77 -189 -290 -522 -109 -170 -205 -319
-212 -330 -12 -17 -14 55 -12 480 l3 500 60 13 c157 35 396 38 420 5z m518
-214 c52 -59 101 -151 116 -219 16 -67 13 -218 -4 -285 -48 -181 -184 -304
-396 -355 -114 -27 -339 -43 -462 -33 l-98 8 258 405 c266 416 319 494 386
567 l39 42 58 -39 c32 -22 78 -63 103 -91z m-513 -1049 c364 -32 615 -185 694
-424 93 -279 -22 -546 -289 -672 -137 -65 -249 -87 -445 -87 -140 0 -333 20
-418 42 l-27 7 -3 523 -2 522 26 44 25 44 87 4 c190 7 241 6 352 -3z"/>
</g>
</svg>
